<svg width="500" height="149" viewBox="0 0 500 149" fill="none" xmlns="http://www.w3.org/2000/svg">
<g clip-path="url(#clip0_1780_2880)">
<path d="M454.033 15.9368H500V32.9759H486.259V131.648H466.927V32.9759H454.033V15.9368Z" fill="#020A0A"/>
<path d="M188.374 114.344H191.02C191.02 114.344 191.514 114.344 191.849 114.044C192.025 113.903 192.519 113.18 192.678 112.898C193.013 112.298 193.013 111.716 193.013 111.716V79.4014C193.013 79.4014 193.013 78.9604 192.678 78.3783C192.502 77.9197 192.008 77.1965 191.849 77.0554C191.532 76.7555 191.02 76.8966 191.02 76.8966H183.576V114.309H188.374V114.344ZM188.374 15.9367H195.994C195.994 15.9367 202.609 15.7956 208.712 21.3166C213.845 25.8321 213.845 32.9759 213.845 32.9759V54.2131C213.845 54.2131 213.845 58.4464 211.852 61.7978C209.876 65.1315 204.073 67.7597 204.073 67.7597C204.073 67.7597 209.7 68.4829 213.174 75.0446C213.845 76.1911 213.845 78.2372 213.845 78.2372V114.626C213.845 114.626 213.845 121.77 208.712 126.427C202.591 131.789 195.994 131.648 195.994 131.648H163.733V15.9367H188.374ZM193.013 42.2892V35.5864C193.013 35.5864 193.013 35.022 192.678 34.4223C192.502 33.9989 192.008 33.3992 191.849 33.2581C191.532 32.9759 191.02 32.9759 191.02 32.9759H183.576V59.4694H191.02C191.02 59.4694 191.514 59.6106 191.849 59.3107C192.025 59.1696 192.519 58.4464 192.678 58.0054C193.013 57.4233 193.013 56.9824 193.013 56.9824V42.2892Z" fill="#020A0A"/>
<path d="M245.771 92.9304H250.728V39.661C250.728 36.0274 248.576 32.9759 245.771 32.9759C242.967 32.9759 240.815 36.0274 240.815 39.661V92.9304H245.771ZM245.771 15.9368H251.398C261.999 15.9368 270.413 23.5038 270.413 32.676V131.648H250.728V110.534H240.815V131.648H221.8V32.676C221.8 23.5038 230.408 15.9368 240.815 15.9368H245.771Z" fill="#020A0A"/>
<path d="M303.821 15.9367H311.264C311.264 15.9367 317.879 15.7956 323.999 21.3166C329.132 25.8321 329.132 32.9759 329.132 32.9759V54.2131C329.132 54.2131 329.132 58.4464 327.157 61.7978C325.164 65.1315 319.36 67.7597 319.36 67.7597C319.36 67.7597 325.164 68.4829 328.48 75.0446C329.132 76.1911 329.132 78.2372 329.132 78.2372V131.648H308.618V80.2833C308.618 80.2833 308.442 77.955 307.966 77.3729C307.631 76.7908 306.149 76.9319 306.149 76.9319H299.199V131.665H279.02V15.9367H303.821ZM308.618 42.2892L308.442 35.5864C308.442 35.5864 308.618 35.022 308.283 34.4223C307.948 33.9989 307.454 33.3992 307.278 33.2581C306.943 32.9759 306.608 32.9759 306.608 32.9759H299.164V59.4694H306.608C306.608 59.4694 306.943 59.6106 307.278 59.3107C307.454 59.1696 307.948 58.4464 308.283 58.0054C308.601 57.4233 308.442 56.9824 308.442 56.9824L308.618 42.2892Z" fill="#020A0A"/>
<path d="M364.357 15.9367H372.118C372.118 15.9367 378.75 15.7956 384.854 21.3166C389.81 25.8321 389.81 32.9759 389.81 32.9759V54.2131C389.81 54.2131 389.81 58.4464 387.993 61.7978C386 65.1315 380.232 67.7597 380.232 67.7597C380.232 67.7597 385.841 68.4829 389.316 75.0446C389.81 76.1911 389.81 78.2372 389.81 78.2372V114.626C389.81 114.626 389.81 121.77 384.854 126.427C378.733 131.789 372.118 131.648 372.118 131.648H339.874V15.9367H364.357ZM364.357 59.4694H367.179C367.179 59.4694 367.497 59.6106 368.008 59.3107C368.167 59.1696 368.661 58.4464 368.82 58.0054C369.155 57.4233 369.155 56.9824 369.155 56.9824V35.5864C369.155 35.5864 369.155 35.022 368.82 34.4223C368.661 33.9989 368.167 33.3992 368.008 33.2581C367.497 32.9759 367.179 32.9759 367.179 32.9759H359.736V59.4694H364.357ZM369.155 86.2452V79.4014C369.155 79.4014 369.155 78.9604 368.82 78.3783C368.661 77.9197 368.167 77.1965 368.008 77.0554C367.497 76.7555 367.179 76.8966 367.179 76.8966H359.736V114.309H367.179C367.179 114.309 367.497 114.309 368.008 114.009C368.167 113.868 368.661 113.145 368.82 112.862C369.155 112.263 369.155 111.68 369.155 111.68V86.21V86.2452Z" fill="#020A0A"/>
<path d="M423.236 114.344C426.058 114.344 428.369 112.316 428.369 110.411V36.8917C428.369 34.8456 426.04 32.9759 423.236 32.9759C420.59 32.9759 418.279 34.8633 418.279 36.8917V110.393C418.279 112.298 420.59 114.326 423.236 114.326V114.344ZM423.236 15.9368H425.211C437.805 15.9368 448.054 24.9679 448.054 36.0274V111.575C448.054 122.634 437.805 131.648 425.211 131.648H421.084C408.525 131.648 398.259 122.634 398.259 111.575V36.0274C398.259 24.9502 408.525 15.9368 421.084 15.9368H423.236Z" fill="#020A0A"/>
<path d="M53.4369 81.5532C58.5346 78.343 66.7896 79.5248 72.24 82.3646C78.59 85.6807 76.7908 96.9519 81.9061 101.926C84.0756 104.043 103.972 110.693 99.104 115.967C81.7297 125.65 55.6947 124.081 43.9649 105.507C36.045 92.9303 44.6881 87.0565 53.4369 81.5709V81.5532Z" fill="#22398E"/>
<path d="M73.8098 55.871C164.615 12.6206 136.004 149.48 108.012 148.563C100.48 148.334 107.112 133.27 106.424 125.439C105.401 113.797 97.8869 105.701 92.1895 95.8054C85.2045 83.6522 55.7124 64.4964 73.8098 55.871Z" fill="#FFDA00"/>
<path d="M46.5225 69.7881C46.5225 68.3594 46.3108 65.9252 47.5455 64.6905C48.7803 63.4734 49.7857 62.2563 50.8087 62.0447C51.8318 61.639 52.8548 61.0216 54.8833 62.2563C56.7178 63.6851 59.3636 66.1192 59.5753 67.354C59.981 68.5887 59.981 70.1938 59.5753 71.0228C59.1696 71.8342 57.9525 74.2684 55.095 74.2684C52.2375 74.2684 50.209 75.5031 48.5862 73.6687C47.1575 72.0283 46.5401 71.0228 46.5401 69.7881H46.5225Z" fill="#22398E"/>
<path d="M120.376 28.9893C120.429 30.4004 120.765 37.0503 118.807 40.1194C114.714 46.54 92.5952 40.0665 76.5262 43.2239C71.8167 44.1587 64.6377 45.8521 58.4641 48.2157C49.3095 51.7082 40.3137 57.6525 32.9406 64.3552C19.0941 76.9317 6.12954 98.3982 2.86635 98.0984C-0.467392 97.8162 -0.00878124 90.8488 0.0617742 88.4676C0.326357 79.6834 7.13496 59.3811 13.6966 48.0746C24.8973 28.7424 54.9539 -0.555771 81.2535 -0.000146421C81.2535 -0.000146421 119.301 -0.564589 120.376 28.9805V28.9893Z" fill="#E30613"/>
</g>
<defs>
<clipPath id="clip0_1780_2880">
<rect width="500" height="148.563" fill="white"/>
</clipPath>
</defs>
</svg>
